<svg width="38" height="39" viewBox="0 0 38 39" fill="none" xmlns="http://www.w3.org/2000/svg">
<path fill-rule="evenodd" clip-rule="evenodd" d="M5.26155 5.61603H1.92607C1.13894 5.61603 0.5 6.25463 0.5 7.04117V9.10492C0.5 9.89146 1.13894 10.5301 1.92607 10.5301H5.26155V13.104H1.92607C1.13894 13.104 0.5 13.7426 0.5 14.5292V16.5931C0.5 17.3794 1.13894 18.0181 1.92607 18.0181H5.26155V20.826H1.92607C1.13894 20.826 0.5 21.4646 0.5 22.2511V24.315C0.5 25.1014 1.13894 25.74 1.92607 25.74H5.26155V28.314H1.92607C1.13894 28.314 0.5 28.9526 0.5 29.7391V31.803C0.5 32.5894 1.13894 33.228 1.92607 33.228H5.26155V36.4229C5.26155 37.8453 6.41713 39 7.84063 39H34.9209C36.3444 39 37.5 37.8453 37.5 36.4229V2.57712C37.5 1.15485 36.3444 0 34.9209 0H7.84063C6.41713 0 5.26155 1.15485 5.26155 2.57712V5.61603ZM30.5213 28.6135C30.5213 24.7879 27.413 21.6818 23.5845 21.6818H19.2168C15.3883 21.6818 12.2801 24.7879 12.2801 28.6135H30.5213ZM21.4491 10.3867C23.9393 10.3867 25.9611 12.4067 25.9611 14.8951C25.9611 17.3832 23.9393 19.4034 21.4491 19.4034C18.959 19.4034 16.9373 17.3832 16.9373 14.8951C16.9373 12.4067 18.959 10.3867 21.4491 10.3867Z" fill="#3A3A48"/>
</svg>
