<svg width="45" height="44" viewBox="0 0 45 44" fill="none" xmlns="http://www.w3.org/2000/svg">
<path d="M42.0712 0H2.9288C2.28464 0 1.66687 0.255891 1.21138 0.711379C0.755891 1.16687 0.5 1.78464 0.5 2.4288L0.5 41.5712C0.5 42.2154 0.755891 42.8331 1.21138 43.2886C1.66687 43.7441 2.28464 44 2.9288 44H24.003V26.9843H18.2883V20.3245H24.003V15.4229C24.003 9.73984 27.4738 6.64576 32.5443 6.64576C34.2556 6.63941 35.9659 6.72636 37.6677 6.90624V12.848H34.1723C31.4126 12.848 30.8794 14.1592 30.8794 16.0829V20.3245H37.4741L36.6152 26.9843H30.8794V44H42.0712C42.7154 44 43.3331 43.7441 43.7886 43.2886C44.2441 42.8331 44.5 42.2154 44.5 41.5712V2.4288C44.5 1.78464 44.2441 1.16687 43.7886 0.711379C43.3331 0.255891 42.7154 0 42.0712 0Z" fill="#0866FF"/>
</svg>
