<?xml version="1.0" encoding="utf-8"?>
<!-- Generator: Adobe Illustrator 16.0.0, SVG Export Plug-In . SVG Version: 6.00 Build 0)  -->
<!DOCTYPE svg PUBLIC "-//W3C//DTD SVG 1.1//EN" "http://www.w3.org/Graphics/SVG/1.1/DTD/svg11.dtd">
<svg version="1.1" id="Layer_1" xmlns="http://www.w3.org/2000/svg" xmlns:xlink="http://www.w3.org/1999/xlink" x="0px" y="0px"
	 width="44.18px" height="45px" viewBox="0.41 0 44.18 45" enable-background="new 0.41 0 44.18 45" xml:space="preserve">
<path fill="#3A3A48" d="M44.33,19.032l-0.228-0.963H23.15v8.861h12.52c-1.301,6.168-7.332,9.414-12.259,9.414
	c-3.584,0-7.363-1.506-9.864-3.928c-2.665-2.622-4.177-6.195-4.202-9.932c0-3.732,1.679-7.466,4.122-9.922
	c2.443-2.456,6.132-3.83,9.8-3.83c4.201,0,7.212,2.229,8.337,3.246l6.302-6.264C36.057,4.091,30.979,0,23.063,0
	C16.957,0,11.101,2.337,6.82,6.6c-4.224,4.198-6.41,10.268-6.41,15.9c0,5.632,2.069,11.399,6.162,15.629
	C10.946,42.641,17.14,45,23.518,45c5.805,0,11.305-2.272,15.226-6.395c3.854-4.059,5.847-9.673,5.847-15.56
	C44.59,20.568,44.342,19.097,44.33,19.032z"/>
</svg>
