<svg width="45" height="45" viewBox="0 0 45 45" fill="none" xmlns="http://www.w3.org/2000/svg">
<path d="M44.4202 19.0325L44.1926 18.0688H23.2398V26.93H35.7591C34.4587 33.0976 28.4275 36.344 23.5008 36.344C19.9164 36.344 16.1376 34.8376 13.6367 32.4157C10.9717 29.7941 9.45964 26.2202 9.43451 22.484C9.43451 18.7514 11.1134 15.0182 13.5563 12.562C15.9989 10.1064 19.6879 8.73205 23.3566 8.73205C27.5574 8.73205 30.5679 10.9605 31.694 11.9773L37.9953 5.71364C36.1469 4.09057 31.0681 0 23.1529 0C17.0465 0 11.1908 2.33761 6.91025 6.59966C2.68637 10.798 0.5 16.8676 0.5 22.4997C0.5 28.1317 2.56878 33.898 6.66222 38.1291C11.0363 42.641 17.2299 45 23.608 45C29.4122 45 34.912 42.7273 38.8328 38.6052C42.6866 34.5473 44.6804 28.9324 44.6804 23.0461C44.6804 20.5685 44.4312 19.0966 44.4202 19.0325Z" fill="#3A3A48"/>
</svg>
