<?xml version="1.0" encoding="UTF-8" standalone="no"?>
<!DOCTYPE svg PUBLIC "-//W3C//DTD SVG 1.1//EN" "http://www.w3.org/Graphics/SVG/1.1/DTD/svg11.dtd">
<svg width="100%" height="100%" viewBox="0 0 21 21" version="1.1" xmlns="http://www.w3.org/2000/svg" xmlns:xlink="http://www.w3.org/1999/xlink" xml:space="preserve" xmlns:serif="http://www.serif.com/" style="fill-rule:evenodd;clip-rule:evenodd;stroke-linejoin:round;stroke-miterlimit:2;">
    <g transform="matrix(0.0514828,0,0,0.0514828,0.00835355,0.00835355)">
        <path d="M50.948,63.685L50.948,12.737C50.948,5.696 56.644,0 63.686,0C70.725,0 76.422,5.696 76.422,12.737L76.422,63.685C76.422,70.725 70.725,76.421 63.686,76.421C56.644,76.422 50.948,70.725 50.948,63.685ZM267.476,76.422C274.514,76.422 280.213,70.725 280.213,63.686L280.213,12.737C280.213,5.696 274.514,0 267.476,0C260.435,0 254.735,5.696 254.735,12.737L254.735,63.685C254.735,70.725 260.435,76.422 267.476,76.422ZM407.578,305.681C407.578,361.958 361.956,407.579 305.684,407.579C249.415,407.579 203.79,361.958 203.79,305.681C203.79,249.413 249.414,203.789 305.684,203.789C361.956,203.789 407.578,249.412 407.578,305.681ZM382.108,305.681C382.108,263.546 347.827,229.261 305.684,229.261C263.545,229.261 229.265,263.545 229.265,305.681C229.265,347.825 263.545,382.104 305.684,382.104C347.827,382.104 382.108,347.825 382.108,305.681ZM101.896,152.842L50.948,152.842L50.948,203.789L101.896,203.789L101.896,152.842ZM50.948,280.211L101.896,280.211L101.896,229.261L50.948,229.261L50.948,280.211ZM127.368,203.789L178.318,203.789L178.318,152.842L127.368,152.842L127.368,203.789ZM127.368,280.211L178.318,280.211L178.318,229.261L127.368,229.261L127.368,280.211ZM25.476,303.148L25.476,127.368L305.684,127.368L305.684,178.316L331.159,178.316L331.159,78.96C331.159,63.486 318.818,50.947 303.571,50.947L292.947,50.947L292.947,63.686C292.947,77.715 281.527,89.159 267.477,89.159C253.423,89.159 242.003,77.715 242.003,63.686L242.003,50.947L89.158,50.947L89.158,63.686C89.158,77.715 77.739,89.159 63.687,89.159C49.631,89.159 38.212,77.715 38.212,63.686L38.212,50.947L27.602,50.947C12.354,50.947 0.001,63.486 0.001,78.96L0.001,303.149C0.001,318.572 12.354,331.16 27.602,331.16L178.318,331.16L178.318,305.682L27.602,305.682C26.447,305.681 25.476,304.489 25.476,303.148ZM254.735,203.789L254.735,152.842L203.791,152.842L203.791,203.789L254.735,203.789ZM343.895,305.681L305.684,305.681L305.684,267.469C305.684,260.433 299.988,254.737 292.947,254.737C285.906,254.737 280.213,260.433 280.213,267.469L280.213,318.422C280.213,325.46 285.906,331.159 292.947,331.159L343.895,331.159C350.936,331.159 356.632,325.46 356.632,318.422C356.632,311.381 350.936,305.681 343.895,305.681Z" style="fill:rgb(58,58,72);fill-rule:nonzero;"/>
    </g>
</svg>
