<?xml version="1.0" encoding="utf-8"?>
<!-- Generator: Adobe Illustrator 16.0.0, SVG Export Plug-In . SVG Version: 6.00 Build 0)  -->
<!DOCTYPE svg PUBLIC "-//W3C//DTD SVG 1.1//EN" "http://www.w3.org/Graphics/SVG/1.1/DTD/svg11.dtd">
<svg version="1.1" id="Layer_1" xmlns="http://www.w3.org/2000/svg" xmlns:xlink="http://www.w3.org/1999/xlink" x="0px" y="0px"
	 width="101px" height="92px" viewBox="0 0 101 92" enable-background="new 0 0 101 92" xml:space="preserve">
<g>
	<g>
		<defs>
			<path id="SVGID_1_" d="M17.738,21.76c-0.485,0.705-0.217,1.646,0.518,2c1.133,0.545,2.602,0.984,4.026,1.206
				c1.616,0.25,3.251-0.326,4.371-1.54C36.947,12.257,49.329,6.111,61.526,6.111c10.972,0,20.333,6.792,24.439,17.766
				c0.328,0.878,1.213,1.284,2.154,1.065c0.371-0.087,0.777-0.342,0.706-0.687C86.013,10.586,75.7,1.397,61.913,0.275
				c-1.236-0.101-2.477-0.15-3.713-0.151C42.582,0.124,27.176,8.072,17.738,21.76"/>
		</defs>
		<use xlink:href="#SVGID_1_"  overflow="visible" fill="#0A00B4"/>
		<clipPath id="SVGID_2_">
			<use xlink:href="#SVGID_1_"  overflow="visible"/>
		</clipPath>
	</g>
	<g>
		<defs>
			<path id="SVGID_3_" d="M72.404,68.575C62.108,79.742,49.727,85.889,37.529,85.889c-10.971,0-20.333-6.791-24.439-17.767
				c-0.329-0.879-1.212-1.284-2.155-1.065c-0.372,0.088-0.777,0.343-0.706,0.688c2.813,13.668,13.125,22.856,26.913,23.979
				C53.995,93.1,71.131,85.012,81.316,70.24c0.486-0.705,0.219-1.646-0.517-2.001c-1.135-0.544-2.603-0.984-4.027-1.205
				c-0.249-0.038-0.499-0.057-0.747-0.057C74.664,66.978,73.349,67.547,72.404,68.575"/>
		</defs>
		<use xlink:href="#SVGID_3_"  overflow="visible" fill="#0A00B4"/>
		<clipPath id="SVGID_4_">
			<use xlink:href="#SVGID_3_"  overflow="visible"/>
		</clipPath>
	</g>
	<path fill="#0A00B4" d="M68.005,30.661c0.566,0,0.941,0.589,0.701,1.103L56.73,57.409c-1.104,2.364-4.204,3.873-6.085,3.873
		c-2.614,0-4.99-1.517-6.091-3.888L32.663,31.761c-0.237-0.513,0.151-1.101,0.703-1.101h7.916c0.302,0,0.594,0.187,0.714,0.474
		l8.141,19.339c0.102,0.242,0.326,0.364,0.548,0.364c0.224,0,0.449-0.122,0.55-0.366l8.097-19.335
		c0.12-0.289,0.421-0.476,0.714-0.476H68.005z"/>
	<path fill="#0A00B4" d="M87.924,30.166c4.482,0,8.307,1.223,11.352,4.23c0.318,0.313,0.315,0.828-0.029,1.132l-4.822,4.315
		c-0.146,0.131-0.329,0.195-0.511,0.195c-0.19,0-0.382-0.07-0.533-0.206c-1.456-1.306-3.13-1.858-5.128-1.858
		c-4.386,0-7.292,3.267-7.292,7.45c0,4.632,2.906,8.543,7.809,8.543c2.102,0,4.079-0.838,5.608-2.258
		c0.152-0.141,0.345-0.214,0.538-0.214c0.177,0,0.354,0.062,0.496,0.184l5.048,4.29c0.363,0.313,0.366,0.838,0.031,1.155
		c-3.264,3.092-7.499,4.604-12.144,4.604c-9.268,0-16.605-6.366-16.605-15.757C71.741,36.992,79.052,30.166,87.924,30.166"/>
	<path fill="#0A00B4" d="M16.446,30.166c4.483,0,8.308,1.223,11.352,4.23c0.317,0.313,0.315,0.828-0.028,1.132l-4.824,4.315
		c-0.147,0.131-0.33,0.195-0.511,0.195c-0.191,0-0.381-0.07-0.533-0.206c-1.456-1.306-3.131-1.858-5.127-1.858
		c-4.386,0-7.291,3.267-7.291,7.45c0,4.632,2.905,8.543,7.808,8.543c2.101,0,4.079-0.838,5.607-2.258
		c0.152-0.141,0.345-0.214,0.539-0.214c0.176,0,0.352,0.062,0.496,0.184l5.047,4.29c0.364,0.313,0.367,0.838,0.031,1.155
		c-3.263,3.092-7.498,4.604-12.144,4.604c-9.267,0-16.605-6.366-16.605-15.757C0.264,36.992,7.575,30.166,16.446,30.166"/>
</g>
</svg>
