<svg xmlns="http://www.w3.org/2000/svg" width="101" height="92" fill="none" viewBox="0 0 101 92">
  <path fill="url(#a)" fill-rule="evenodd" d="M22.334 24.795c-1.422-.22-2.887-.658-4.02-1.202a1.356 1.356 0 0 1-.516-1.997C27.965 6.851 45.07-1.22 61.892.15c13.762 1.121 24.056 10.293 26.864 23.936.07.345-.335.6-.706.686-.94.219-1.822-.185-2.15-1.062C81.802 12.755 72.456 5.975 61.505 5.975c-12.175 0-24.534 6.136-34.81 17.284a4.909 4.909 0 0 1-4.361 1.536Zm-5.826 5.192c4.475 0 8.293 1.22 11.331 4.222a.769.769 0 0 1-.028 1.13l-4.815 4.307a.76.76 0 0 1-.51.195c-.19 0-.38-.07-.532-.205-1.453-1.304-3.125-1.855-5.118-1.855-4.379 0-7.278 3.26-7.278 7.436 0 4.624 2.9 8.528 7.795 8.528 2.097 0 4.07-.837 5.597-2.254a.79.79 0 0 1 .537-.213c.176 0 .353.06.496.182l5.037 4.282a.767.767 0 0 1 .031 1.154c-3.257 3.086-7.484 4.596-12.121 4.596-9.25 0-16.574-6.354-16.574-15.73 0-8.961 7.297-15.775 16.152-15.775Zm71.346 0c4.475 0 8.293 1.22 11.331 4.222a.769.769 0 0 1-.028 1.13l-4.814 4.307a.76.76 0 0 1-.51.195c-.19 0-.38-.07-.532-.205-1.454-1.304-3.126-1.855-5.119-1.855-4.379 0-7.278 3.26-7.278 7.436 0 4.624 2.9 8.528 7.795 8.528 2.097 0 4.07-.837 5.597-2.254a.79.79 0 0 1 .538-.213.76.76 0 0 1 .495.182l5.038 4.282a.767.767 0 0 1 .03 1.154c-3.257 3.086-7.484 4.596-12.12 4.596-9.251 0-16.576-6.354-16.576-15.73 0-8.961 7.298-15.775 16.153-15.775Zm-7.186 37.917c-1.132-.544-2.597-.982-4.019-1.202a4.909 4.909 0 0 0-4.362 1.536C62.011 79.386 49.653 85.52 37.477 85.52c-10.95 0-20.296-6.78-24.393-17.734-.329-.877-1.211-1.281-2.15-1.062-.372.086-.777.341-.707.686 2.809 13.643 13.102 22.815 26.865 23.936 16.82 1.371 33.926-6.701 44.093-21.446a1.355 1.355 0 0 0-.517-1.997ZM68.672 31.581a.773.773 0 0 0-.7-1.1h-7.945a.793.793 0 0 0-.713.475l-8.081 19.3a.586.586 0 0 1-.549.366.587.587 0 0 1-.548-.364l-8.125-19.304a.784.784 0 0 0-.713-.473h-7.9a.778.778 0 0 0-.702 1.098l11.87 25.587a6.701 6.701 0 0 0 6.079 3.881c1.876 0 4.97-1.507 6.072-3.866l11.955-25.6Z" clip-rule="evenodd"/>
  <defs>
    <linearGradient id="a" x1="88.764" x2="17.553" y1="12.427" y2="12.427" gradientUnits="userSpaceOnUse">
      <stop stop-color="#4BE641"/>
      <stop offset=".066" stop-color="#3FBA57"/>
      <stop offset=".142" stop-color="#328F6D"/>
      <stop offset=".225" stop-color="#276880"/>
      <stop offset=".312" stop-color="#1E4890"/>
      <stop offset=".406" stop-color="#172E9D"/>
      <stop offset=".509" stop-color="#1119A7"/>
      <stop offset=".625" stop-color="#0D0BAF"/>
      <stop offset=".766" stop-color="#0B03B3"/>
      <stop offset="1" stop-color="#0A00B4"/>
    </linearGradient>
  </defs>
</svg>
