<svg viewBox="0 0 25 25" xmlns="http://www.w3.org/2000/svg" fill="#3A3A48" width="20px" height="20px"><path d="M21.35 4.30988C21.1656 4.18511 20.9536 4.10716 20.7323 4.08277C20.511 4.05837 20.2871 4.08827 20.08 4.16988L15.24 6.09988C15.1843 6.11473 15.1257 6.11473 15.07 6.09988V6.09988C15.014 6.11272 14.9559 6.11272 14.9 6.09988L9.66999 4.00988C9.19649 3.83004 8.67349 3.83004 8.19999 4.00988L3.28999 6.00988C2.93094 6.15724 2.62252 6.40589 2.40234 6.72551C2.18216 7.04512 2.05974 7.42189 2.04999 7.80988V19.5599C2.05088 19.7825 2.10601 20.0015 2.21061 20.1981C2.3152 20.3946 2.46611 20.5627 2.65028 20.6877C2.83444 20.8128 3.04631 20.8911 3.26755 20.9159C3.48878 20.9407 3.71272 20.9111 3.91999 20.8299L8.74999 18.8999C8.80917 18.8858 8.87081 18.8858 8.92999 18.8999C8.98917 18.8858 9.05081 18.8858 9.10999 18.8999L14.33 20.9899C14.5663 21.0806 14.8169 21.128 15.07 21.1299C15.3198 21.1279 15.5672 21.0804 15.8 20.9899V20.9899L20.71 18.9899C21.0784 18.8503 21.3974 18.605 21.6269 18.2847C21.8564 17.9645 21.9862 17.5836 22 17.1899V5.43988C21.9949 5.21217 21.9328 4.98937 21.8192 4.79193C21.7056 4.59449 21.5443 4.42874 21.35 4.30988V4.30988ZM8.99999 5.35988L14.92 7.72988V19.6099L8.99999 17.2399V5.35988Z"></path></svg>