<?xml version="1.0" encoding="utf-8"?>
<!-- Generator: Adobe Illustrator 16.0.0, SVG Export Plug-In . SVG Version: 6.00 Build 0)  -->
<!DOCTYPE svg PUBLIC "-//W3C//DTD SVG 1.1//EN" "http://www.w3.org/Graphics/SVG/1.1/DTD/svg11.dtd">
<svg version="1.1" id="Layer_1" xmlns="http://www.w3.org/2000/svg" xmlns:xlink="http://www.w3.org/1999/xlink" x="0px" y="0px"
	 width="45px" height="44.62px" viewBox="0.5 1.69 45 44.62" enable-background="new 0.5 1.69 45 44.62" xml:space="preserve">
<path fill="#3A3A48" d="M38.313,13.51l7.188,3.596L41.926,24l3.574,6.894l-7.188,3.598l-1.406,7.559l-8.058-1.074L23,46.31
	l-5.849-5.334L9.094,42.05l-1.406-7.559L0.5,30.894L4.074,24L0.5,17.105l7.188-3.596l1.406-7.559l8.057,1.074L23,1.689l5.85,5.336
	l8.057-1.074L38.313,13.51z M15.83,15.904c-3.009,0-4.851,2.08-4.851,4.721c0,2.765,1.66,4.722,4.851,4.722
	c3.111,0,4.901-2.056,4.901-4.722C20.73,17.838,19.044,15.904,15.83,15.904z M15.725,31.867h3.01l11.592-15.959h-3.034
	L15.725,31.867z M25.27,27.375c0,2.765,1.659,4.721,4.85,4.721c3.112,0,4.902-2.054,4.902-4.721c0-2.788-1.687-4.72-4.902-4.72
	C27.11,22.655,25.27,24.733,25.27,27.375z M18.189,20.625c0-1.688-0.727-2.689-2.308-2.689c-1.531,0-2.387,1.125-2.387,2.689
	c0,1.639,0.752,2.715,2.36,2.715C17.385,23.34,18.189,22.19,18.189,20.625z M30.172,24.686c-1.531,0-2.387,1.124-2.387,2.689
	c0,1.639,0.752,2.715,2.36,2.715c1.53,0,2.335-1.148,2.335-2.715C32.48,25.688,31.754,24.686,30.172,24.686z"/>
</svg>
