<svg width="46" height="48" viewBox="0 0 46 48" fill="none" xmlns="http://www.w3.org/2000/svg">
<path fill-rule="evenodd" clip-rule="evenodd" d="M38.3121 12.5504L45.5 16.3694L41.9262 23.69L45.4998 31.0109L38.3118 34.8298L36.9057 42.8558L28.8487 41.7148L23 47.38L17.1513 41.7148L9.09429 42.8558L7.68816 34.8298L0.5 31.0109L4.07376 23.69L0.5 16.3694L7.68828 12.5504L9.09441 4.52443L17.1515 5.66551L23.0001 0L28.8489 5.66551L36.906 4.52443L38.3121 12.5504ZM15.8294 15.094C12.8201 15.094 10.9787 17.3017 10.9787 20.1067C10.9787 23.0408 12.6386 25.1185 15.8294 25.1185C18.941 25.1185 20.7307 22.9372 20.7307 20.1067C20.7307 17.1463 19.0445 15.094 15.8294 15.094ZM15.7248 32.0434H18.7342L30.3266 15.0979H27.2921L15.7248 32.0434ZM25.2691 27.2742C25.2691 30.2094 26.9289 32.286 30.1187 32.286C33.2315 32.286 35.0213 30.1048 35.0213 27.2742C35.0213 24.3137 33.3349 22.2615 30.1187 22.2615C27.1105 22.2615 25.2691 24.4692 25.2691 27.2742ZM18.1894 20.1067C18.1894 18.3145 17.4629 17.2498 15.8811 17.2498C14.3501 17.2498 13.4948 18.4446 13.4948 20.1067C13.4948 21.8461 14.2466 22.989 15.8548 22.989C17.3848 22.989 18.1894 21.7688 18.1894 20.1067ZM30.1716 24.4174C28.6406 24.4174 27.7854 25.6122 27.7854 27.2742C27.7854 29.0146 28.5372 30.1564 30.1454 30.1564C31.6754 30.1564 32.4799 28.9362 32.4799 27.2742C32.4798 25.4821 31.7533 24.4174 30.1716 24.4174Z" fill="#3A3A48"/>
</svg>
