<?xml version="1.0" encoding="utf-8"?>
<!-- Generator: Adobe Illustrator 16.0.0, SVG Export Plug-In . SVG Version: 6.00 Build 0)  -->
<!DOCTYPE svg PUBLIC "-//W3C//DTD SVG 1.1//EN" "http://www.w3.org/Graphics/SVG/1.1/DTD/svg11.dtd">
<svg version="1.1" id="Layer_1" xmlns="http://www.w3.org/2000/svg" xmlns:xlink="http://www.w3.org/1999/xlink" x="0px" y="0px"
	 width="35.514px" height="43px" viewBox="0 0 35.514 43" enable-background="new 0 0 35.514 43" xml:space="preserve">
<path fill="#0A00B4" d="M34.907,11.024c-1.346-3.245-3.621-6.018-6.54-7.971C25.446,1.101,22.013,0.06,18.5,0.06
	c-3.514,0-6.946,1.041-9.867,2.993c-2.919,1.953-5.195,4.726-6.54,7.971c-1.344,3.245-1.695,6.817-1.009,10.261
	c0.686,3.445,2.378,6.609,4.862,9.092L18.51,42.939l12.542-12.563c2.483-2.482,4.178-5.646,4.861-9.092
	C36.602,17.841,36.251,14.269,34.907,11.024z M18.501,24.736c-3.872,0-7.01-3.137-7.01-7.009s3.138-7.01,7.01-7.01
	s7.009,3.138,7.009,7.01C25.511,21.6,22.373,24.736,18.501,24.736z"/>
</svg>
