<?xml version="1.0" encoding="utf-8"?>
<!-- Generator: Adobe Illustrator 16.0.0, SVG Export Plug-In . SVG Version: 6.00 Build 0)  -->
<!DOCTYPE svg PUBLIC "-//W3C//DTD SVG 1.1//EN" "http://www.w3.org/Graphics/SVG/1.1/DTD/svg11.dtd">
<svg version="1.1" id="Layer_1" xmlns="http://www.w3.org/2000/svg" xmlns:xlink="http://www.w3.org/1999/xlink" x="0px" y="0px"
	 width="45px" height="45px" viewBox="0.5 0 45 45" enable-background="new 0.5 0 45 45" xml:space="preserve">
<path fill="#3A3A48" d="M35.729,35.172l-7.789,7.791c-2.717,2.717-7.162,2.717-9.879,0l-7.79-7.791h1.48
	c1.046,0,2.098-0.381,2.836-1.134c0.001,0.003,6.901-6.919,7.608-7.626c0.224-0.223,0.515-0.335,0.804-0.335
	c0.292,0,0.585,0.112,0.809,0.332c0.642,0.643,7.603,7.642,7.615,7.629c0.738,0.753,1.791,1.134,2.835,1.134H35.729L35.729,35.172z
	 M10.271,9.828l7.79-7.791c2.717-2.717,7.162-2.717,9.879,0l7.789,7.791h-1.471c-1.044,0-2.097,0.379-2.835,1.132
	c-0.013-0.013-6.974,6.988-7.615,7.63c-0.224,0.221-0.517,0.332-0.809,0.332c-0.289,0-0.58-0.111-0.804-0.335
	c-0.707-0.705-7.607-7.628-7.608-7.627c-0.739-0.753-1.79-1.132-2.836-1.132H10.271z M2.537,17.561l5.343-5.343h3.871
	c0.246,0,0.478,0.041,0.676,0.117c0.175,0.068,0.33,0.166,0.452,0.291c0,0.021,6.895,6.92,7.626,7.652
	c0.684,0.684,1.589,1.024,2.494,1.024c0.903,0,1.807-0.341,2.492-1.024c2.548-2.549,5.107-5.088,7.641-7.652
	c0.122-0.125,0.274-0.223,0.451-0.291c0.198-0.076,0.43-0.117,0.675-0.117h3.863l5.342,5.343c2.717,2.716,2.717,7.161,0,9.877
	l-5.342,5.344h-3.863c-0.245,0-0.477-0.04-0.675-0.117c-0.177-0.068-0.329-0.166-0.451-0.291c-2.533-2.563-5.093-5.103-7.641-7.651
	c-0.686-0.685-1.589-1.026-2.492-1.026c-0.905,0-1.811,0.341-2.494,1.026c-0.731,0.732-7.626,7.631-7.626,7.651
	c-0.122,0.125-0.277,0.223-0.452,0.291c-0.198,0.077-0.43,0.117-0.676,0.117H7.88l-5.343-5.344
	C-0.18,24.722-0.18,20.276,2.537,17.561z"/>
</svg>
