<svg width="40" height="39" viewBox="0 0 40 39" fill="none" xmlns="http://www.w3.org/2000/svg">
<path d="M39.4988 29.199V35.0701C39.501 35.6151 39.3891 36.1546 39.1704 36.654C38.9516 37.1534 38.6307 37.6016 38.2283 37.9701C37.8259 38.3386 37.3508 38.6191 36.8334 38.7937C36.3161 38.9683 35.7679 39.0332 35.224 38.9841C29.19 38.3298 23.3938 36.272 18.3014 32.976C13.5635 29.9714 9.54656 25.9624 6.53591 21.2339C3.22193 16.1284 1.15957 10.3157 0.515916 4.2665C0.466914 3.72532 0.531358 3.17988 0.705145 2.66492C0.878931 2.14996 1.15825 1.67675 1.52533 1.27543C1.8924 0.874105 2.33918 0.553459 2.83722 0.333905C3.33527 0.114352 3.87366 0.000701459 4.41813 0.000189738H10.3009C11.2525 -0.00915788 12.1751 0.327167 12.8966 0.946475C13.6182 1.56578 14.0895 2.42582 14.2227 3.36627C14.471 5.24514 14.9314 7.08995 15.5953 8.86551C15.8591 9.56598 15.9162 10.3272 15.7598 11.0591C15.6034 11.791 15.2401 12.4627 14.7129 12.9948L12.2225 15.4803C15.014 20.3798 19.0788 24.4365 23.988 27.2224L26.4784 24.737C27.0115 24.2108 27.6846 23.8482 28.4179 23.6921C29.1512 23.536 29.914 23.593 30.6159 23.8563C32.395 24.5189 34.2434 24.9784 36.126 25.2262C37.0786 25.3603 37.9485 25.8392 38.5704 26.5717C39.1922 27.3042 39.5227 28.2392 39.4988 29.199Z" fill="#3A3A48"/>
</svg>
