<svg width="45" height="44" viewBox="0 0 45 44" fill="none" xmlns="http://www.w3.org/2000/svg">
<path fill-rule="evenodd" clip-rule="evenodd" d="M37.8462 6.39423C33.7367 2.273 28.2717 0.00240451 22.449 0C10.4516 0 0.687235 9.7802 0.682434 21.8016C0.680869 25.6446 1.68311 29.3953 3.58792 32.7019L0.5 44L12.0387 40.9681C15.2179 42.7051 18.7974 43.6207 22.4402 43.622H22.4492H22.4494C34.4453 43.622 44.2106 33.8406 44.2155 21.8191C44.2177 15.9933 41.9557 10.5154 37.8462 6.39423ZM22.4492 39.9397H22.4419C19.1956 39.9385 16.0115 39.0648 13.2339 37.4137L12.5732 37.021L5.72609 38.8202L7.55367 32.1329L7.12357 31.4472C5.31259 28.5619 4.35606 25.2272 4.35752 21.803C4.36149 11.8114 12.4773 3.68246 22.4564 3.68246C27.2887 3.68413 31.8309 5.57147 35.2467 8.99707C38.6626 12.4223 40.5423 16.9753 40.5406 21.8176C40.5364 31.8101 32.4208 39.9397 22.4492 39.9397ZM32.3727 26.3672C31.8288 26.0946 29.155 24.7767 28.6565 24.5948C28.1579 24.413 27.7954 24.3223 27.4327 24.8674C27.0701 25.4127 26.0279 26.6399 25.7107 27.0036C25.3935 27.3671 25.0761 27.4128 24.5323 27.14C23.9884 26.8673 22.236 26.2921 20.1586 24.4359C18.5419 22.9914 17.4503 21.2074 17.1331 20.662C16.8159 20.1165 17.0992 19.8218 17.3715 19.5501C17.6163 19.306 17.9155 18.9137 18.1874 18.5956C18.4593 18.2775 18.5499 18.0502 18.7312 17.6869C18.9125 17.3232 18.8219 17.0051 18.6858 16.7324C18.5499 16.4598 17.4622 13.7781 17.009 12.6873C16.5676 11.6251 16.1192 11.7689 15.7853 11.7521C15.4685 11.7364 15.1055 11.733 14.743 11.733C14.3804 11.733 13.7912 11.8693 13.2926 12.4146C12.7942 12.96 11.3892 14.2781 11.3892 16.9596C11.3892 19.6411 13.3379 22.2316 13.6099 22.5952C13.8819 22.9588 17.4449 28.4614 22.9007 30.8213C24.1984 31.3827 25.2115 31.7178 26.0011 31.9689C27.3041 32.3837 28.4897 32.325 29.4267 32.1847C30.4716 32.0284 32.6445 30.867 33.0977 29.5945C33.5509 28.3216 33.5509 27.231 33.4149 27.0038C33.2792 26.7764 32.9165 26.64 32.3727 26.3672Z" fill="#25D366"/>
</svg>
