<svg width="64" height="44" viewBox="0 0 64 44" fill="none" xmlns="http://www.w3.org/2000/svg">
<path d="M62.0303 6.8706C61.3081 4.16613 59.1779 2.0365 56.474 1.31369C51.5731 0 31.9216 0 31.9216 0C31.9216 0 12.2705 0 7.36917 1.31369C4.66527 2.03702 2.53556 4.16665 1.81238 6.8706C0.5 11.773 0.5 22 0.5 22C0.5 22 0.5 32.2275 1.81238 37.1284C2.53504 39.8333 4.66527 41.9635 7.36865 42.6858C12.27 44 31.9216 44 31.9216 44C31.9216 44 51.5731 44 56.474 42.6863C59.1784 41.964 61.3081 39.8333 62.0303 37.1289C63.3432 32.2275 63.3432 22 63.3432 22C63.3432 22 63.3432 11.773 62.0303 6.8706ZM25.637 31.4286V12.5714L41.9638 22L25.637 31.4286Z" fill="#FF0000"/>
</svg>
